<svg width="32" height="32" viewBox="0 0 32 32" fill="none" xmlns="http://www.w3.org/2000/svg">
<path d="M16 2L6.5 7.5L10.5 9.8L16 6.6L21.5 9.8L25.5 7.5L16 2Z" fill="white"/>
<path d="M25.5 11.2L21.5 13.5V18.5L25.5 20.8V15.5V11.2Z" fill="white"/>
<path d="M25.5 24.5L16 30L6.5 24.5V20.8L10.5 18.5V22.2L16 25.4L21.5 22.2V18.5L25.5 20.8V24.5Z" fill="white"/>
<path d="M6.5 20.8V11.2L10.5 13.5V18.5L6.5 20.8Z" fill="white"/>
<path d="M16 12.1L12.2 14.3V18.7L16 20.9L19.8 18.7V14.3L16 12.1Z" fill="white"/>
</svg>
